<svg xmlns="http://www.w3.org/2000/svg" xmlns:xlink="http://www.w3.org/1999/xlink" viewBox="0 0 900 360">
  <defs>
    <clipPath id="clip1">
      <path d="M359 108h181v144H359z"/>
    </clipPath>
  </defs>
  
  <g transform="translate(-165,10) scale(1.1,0.96)" clip-path="url(#clip1)">
    <path d="M452 252c-24 0-48 0-71 0-4 0-7 0-11-1-5 0-8-3-10-7-2-4-1-7 1-10 6-10 12-20 18-30 2-3 3-5 3-9 0-9 0-19 0-28 0-15 0-29 1-44 0-3 0-7 0-10 0-2 1-3 3-4 2 0 4 0 5 0 22 0 43 0 65 0 16 0 32 0 48 0 3 0 6 0 9 1 3 0 4 2 4 5 0 16 0 31 0 47 0 11 0 21-1 32 0 3 1 5 2 8 7 12 13 24 20 36 2 4-1 7-3 10-3 3-6 4-11 4-25 0-49 0-74 0zm62-139h-126c0 29 0 57 0 86h127v-85zm2 89c-2 0-3 0-5 0-12 0-25 0-37 0-28 0-57 0-85 0-1 0-2 1-2 1-5 9-11 17-16 26-2 3-3 6-5 8h169c-6-12-13-24-19-36zm19 40h-170c1 3 3 4 6 5 2 0 5 1 7 1 12 0 25 0 37 0 37 0 74 0 112 0 4 0 6-1 8-5z" fill="#75bfff"/>
    
    <path d="M450 118c16 0 31 0 47 0 7 0 10 2 10 9 0 20 0 40 0 60 0 3-1 4-4 4-11 0-22 1-33 1-22 0-44 0-66 0-1 0-2 0-3 0-4-1-6-3-6-7 0-19 0-38 0-57 0-1 0-3 1-4 1-4 3-5 7-5 11 0 22 0 33 0 5 0 10 0 15 0zm-1 4h-21c-9 0-18 0-26 0-2 0-3 0-3 3 0 1 0 2 0 3 0 19 0 37 0 56 0 2 1 3 3 3 3 0 5 0 8 0 13 0 26 0 39 0 17 0 34 0 51-1 5 0 5 0 5-5 0-15 0-30 0-44 0-4 0-8-1-12 0-1-1-2-2-2-3 0-6 0-10 0-14 0-28 0-42 0z" transform="translate(-168,9) scale(1.1,0.96)" fill="#75bfff"/>
    
    <path d="M510 230c-22 0-44 0-66 0-18 0-37 0-55 1-1 0-2 0-3 0-3-1-4-2-3-5 2-4 4-8 6-13 2-4 3-5 8-5 14 0 29 0 43 0 22 0 44 0 65 0 3 0 5 1 7 4 2 5 4 9 6 14 1 2 0 4-2 4-2 1-4 1-6 2zm-52-10h-15v5h15c0-2-1-3-1-5zm38 5c-1-2-2-3-2-5h-14c0 2 1 3 1 5h15zm-72 0h15v-5c-4 0-9 0-13 0-1 0-1 1-2 1 0 1 0 2-1 3zm38-5c0 2 1 3 1 5h14c0-2-1-3-1-5h-14zm-59 1c-3 0-5 0-8 0-4 0-6 1-7 5 4 0 8 0 12 0 2 0 3 0 3-2 0-1 0-2 1-3zm3 5c4 0 8 0 12 0 1 0 2-1 2-2 1-1 1-2 1-3h-14c-1 2-1 3-2 5zm93-5l-1 1c1 1 2 4 4 4 4 1 7 1 11 1-1-4-2-6-4-6-3 0-7 0-10 0zm-92-8c-3 0-5 0-8 0-4 0-5 0-6 5 3 0 6 0 9 1 4 0 5 0 5-5zm3 5c0 0 1 0 1 0 3 0 5 0 8 0 5 0 4 1 5-5h-8c-4 0-4 0-5 5zm84 0c-1-2-2-4-3-4-4 0-8 0-13 0 2 2 2 4 4 4 4 0 8 0 13 0zm16 1c-1-1-1-3-2-4-1-1-1-2-2-2-3 0-7 0-11 0l2 5h13zm-83-1h13c0-2 0-3 0-4h-13c0 1 0 3-1 4zm31 0c0-1 0-2-1-4h-13v4h14zm18 0c-1-2-2-4-2-4-4 0-8 0-12 0 0 1 1 3 1 4h13z" transform="translate(-165,11) scale(1.1,0.96)" fill="#75bfff"/>
  </g>
  
  <g transform="translate(-794,61) scale(3.43,-1.84) rotate(30)">
    <path d="M283 213l-18-10c-2-1-2-3-1-5l23-43c1-2 3-2 5-1l18 10c2 1 2 3 1 5l-23 43c-1 2-3 2-5 1zm-8-6c1 1 3 0 3-1 1-1 0-3-1-3-1-1-3 0-3 1-1 1 0 3 1 3zm21-48c0 0 0 0 0 0 0 0 0 0 0 0 0 0 0 0 0 0zm5 0c0 0 0 0 0 0 0 0 0 0 0 0zm1 3l-4-2c0 0 0 0 0 0l4 2c0 0 0 0 0 0zm7 7l-21-11-20 38 21 11 20-38zm-32 34c1 0 1 2 1 2-1 1-2 1-2 1-1-1-1-2-1-2 0-1 1-1 2-1z" fill="#75bfff" fill-rule="evenodd"/>
  </g>
  
  <!-- Simplified text elements - removed complex transforms and embedded fonts -->
  <text x="500" y="130" font-family="Roboto, sans-serif" font-size="8" fill="#fff">Hey!</text>
  <text x="493" y="140" font-family="Roboto, sans-serif" font-size="2" fill="#75bfff">Sent 3:07 PM</text>
  
  <text x="497" y="160" font-family="Roboto, sans-serif" font-size="8" fill="#fff">I only paid</text>
  <text x="497" y="170" font-family="Roboto, sans-serif" font-size="8" fill="#fff">$25 to fix</text>
  <text x="497" y="180" font-family="Roboto, sans-serif" font-size="8" fill="#fff">my phone!</text>
  <text x="494" y="190" font-family="Roboto, sans-serif" font-size="2" fill="#75bfff">Sent 3:09 PM</text>
  
  <text x="494" y="220" font-family="Roboto, sans-serif" font-size="8" fill="#fff">Everything</text>
  <text x="494" y="230" font-family="Roboto, sans-serif" font-size="8" fill="#fff">Breaks Tech</text>
  <text x="494" y="240" font-family="Roboto, sans-serif" font-size="8" fill="#fff">Plan!</text>
  <text x="494" y="250" font-family="Roboto, sans-serif" font-size="2" fill="#75bfff">Sent 3:11 PM</text>
  
  <text x="488" y="130" font-family="Roboto, sans-serif" font-size="8" fill="#fff">What's Up?</text>
  <text x="571" y="140" font-family="Roboto, sans-serif" font-size="2" fill="#75bfff">Read 3:08 PM</text>
  
  <text x="507" y="160" font-family="Roboto, sans-serif" font-size="8" fill="#fff">How?!</text>
  <text x="571" y="170" font-family="Roboto, sans-serif" font-size="2" fill="#75bfff">Read 3:10 PM</text>
  
  <!-- Simplified navigation bar -->
  <rect x="272" y="128" width="116" height="2" fill="#1e3a8a"/>
  <rect x="272" y="145" width="116" height="7" fill="#1e3a8a"/>
  
  <text x="291" y="135" font-family="Roboto, sans-serif" font-size="2" fill="#1e3a8a">Home</text>
  <text x="311" y="135" font-family="Roboto, sans-serif" font-size="2" fill="#1e3a8a">Claims</text>
  <text x="321" y="135" font-family="Roboto, sans-serif" font-size="2" fill="#1e3a8a">About</text>
  <text x="331" y="135" font-family="Roboto, sans-serif" font-size="2" fill="#1e3a8a">Contact</text>
</svg>
